{"title":"The Dictator 2012 BRRip 500mb {ECS}","uid":7509631,"size":514371928,"categoryP":"video","categoryS":"movies","magnet":"?xt=urn:btih:e0e2bb71742c0e293980d27ada14a2c542e81af2&amp;dn=The+Dictator+2012+BRRip+500mb+%7BECS%7D&amp;tr=udp%3A%2F%2Ftracker.openbittorrent.com%3A80&amp;tr=udp%3A%2F%2Fopen.demonii.com%3A1337&amp;tr=udp%3A%2F%2Ftracker.coppersurfer.tk%3A6969&amp;tr=udp%3A%2F%2Fexodus.desync.com%3A6969","seeders":0,"leechers":1,"uploader":"sameer_ecs","files":5,"time":1344276356,"description":"    Movie: The Dictator\n    IMDB link: 1645170\n    Detected quality: BDRip\n    Release date: 11 May 2012\n    Language: English\n    Subtitles: English\n    Genre: Comedy\n\nCast: John C. Reilly, Ben Kingsley, Glenn Andreiev, Sacha Baron Cohen, Danielle Burgio, Kevin Corrigan, Marshall Factora, Anna Faris, Peter Iasillo Jr., Sondra James and others \n\nGeneral\nComplete name : The Dictator 2012 BRRip 500mb {ECS}.m4v\nFormat : MPEG-4\nFormat profile : Base Media / Version 2\nCodec ID : mp42\nFile size : 488 MiB\nDuration : 1h 38mn\nOverall bit rate mode : Variable\nOverall bit rate : 691 Kbps\n\nvideo\nID : 1\nFormat : AVC\nFormat/Info : Advanced Video Codec\nFormat profile : &lt;a class=&quot;__cf_email__&quot; href=&quot;/cdn-cgi/l/email-protection&quot; data-cfemail=&quot;da92b3bdb29a96e9f4ea&quot;&gt;[email&amp;#160;protected]&lt;/a&gt;&lt;script cf-hash='f9e31' type=&quot;text/javascript&quot;&gt;\n/* &lt;![CDATA[ */!function(){try{var t=&quot;currentScript&quot;in document?document.currentScript:function(){for(var t=document.getElementsByTagName(&quot;script&quot;),e=t.length;e--;)if(t[e].getAttribute(&quot;cf-hash&quot;))return t[e]}();if(t&amp;&amp;t.previousSibling){var e,r,n,i,c=t.previousSibling,a=c.getAttribute(&quot;data-cfemail&quot;);if(a){for(e=&quot;&quot;,r=parseInt(a.substr(0,2),16),n=2;a.length-n;n+=2)i=parseInt(a.substr(n,2),16)^r,e+=String.fromCharCode(i);e=document.createTextNode(e),c.parentNode.replaceChild(e,c)}}}catch(u){}}();/* ]]&gt; */&lt;/script&gt;\nFormat settings, CABAC : No\nFormat settings, ReFrames : 4 frames\nCodec ID : avc1\nCodec ID/Info : Advanced Video Coding\nDuration : 1h 38mn\nBit rate mode : Variable\nBit rate : 559 Kbps\nWidth : 720 pixels\nHeight : 300 pixels\nDisplay aspect ratio : 2.40:1\nFrame rate mode : Variable\nFrame rate : 23.976 fps\nMinimum frame rate : 7.992 fps\nMaximum frame rate : 23.981 fps\nColor space : YUV\nChroma subsampling : 4:2:0\nBit depth : 8 bits\nScan type : Progressive\nBits/(Pixel*Frame) : 0.108\nStream size : 395 MiB (81%)\nWriting library : x264 core 120\n\nAudio\nID : 2\nFormat : AAC\nFormat/Info : Advanced Audio Codec\nFormat profile : LC\nCodec ID : 40\nDuration : 1h 38mn\nBit rate mode : Variable\nBit rate : 128 Kbps\nMaximum bit rate : 237 Kbps\nChannel(s) : 2 channels\nChannel positions : Front: L R\nSampling rate : 44.1 KHz\nCompression mode : Lossy\nDelay relative to video : -167ms\nStream size : 90.3 MiB (18%)\nLanguage : English\n &lt;a href=&quot;\nhttp://i1271.photobucket.com/albums/jj629/sameer_ecs/TheDictator2012BRRip500mbECSm4v_thumbs_20120806_192054.jpg&quot; rel=&quot;nofollow&quot; target=&quot;_NEW&quot;&gt;\nhttp://i1271.photobucket.com/albums/jj629/sameer_ecs/TheDictator2012BRRip500mbECSm4v_thumbs_20120806_192054.jpg&lt;/a&gt;","torrent":{"xt":"urn:btih:e0e2bb71742c0e293980d27ada14a2c542e81af2","amp;dn":"The+Dictator+2012+BRRip+500mb+%7BECS%7D","amp;tr":["udp%3A%2F%2Ftracker.openbittorrent.com%3A80","udp%3A%2F%2Fopen.demonii.com%3A1337","udp%3A%2F%2Ftracker.coppersurfer.tk%3A6969","udp%3A%2F%2Fexodus.desync.com%3A6969"],"infoHash":"e0e2bb71742c0e293980d27ada14a2c542e81af2","infoHashBuffer":{"type":"Buffer","data":[224,226,187,113,116,44,14,41,57,128,210,122,218,20,162,197,66,232,26,242]},"announce":[],"urlList":[]}}